inDegrees=no
num_controls=7
num_derivatives=13
num_iterations=139
num_multipliers=7
num_parameters=0
num_slacks=7
num_states=26
objective=5.250227
objective_accelerations=0.703913
objective_balance=0.021013
objective_effort=0.175932
objective_height=4.323804
objective_ligament=0.025565
solver_duration=1532.290891
status=Solve_Succeeded
success=true
DataType=double
version=3
OpenSimVersion=4.4-2022-07-23-0e9fedc
endheader
time	/jointset/ground_pelvis/pelvis_tilt/value	/jointset/ground_pelvis/pelvis_tx/value	/jointset/ground_pelvis/pelvis_ty/value	/jointset/hip_l/hip_flexion_l/value	/jointset/hip_l/hip_adduction_l/value	/jointset/hip_l/hip_rotation_l/value	/jointset/back/lumbar_extension/value	/jointset/patellofemoral_l/patellar_flexion_l/value	/jointset/knee_l/knee_flexion_l/value	/jointset/knee_l/knee_adduction_l/value	/jointset/knee_l/knee_rotation_l/value	/jointset/ankle_l/ankle_angle_l/value	/jointset/subtalar_l/subtalar_angle_l/value	/jointset/ground_pelvis/pelvis_tilt/speed	/jointset/ground_pelvis/pelvis_tx/speed	/jointset/ground_pelvis/pelvis_ty/speed	/jointset/hip_l/hip_flexion_l/speed	/jointset/hip_l/hip_adduction_l/speed	/jointset/hip_l/hip_rotation_l/speed	/jointset/back/lumbar_extension/speed	/jointset/patellofemoral_l/patellar_flexion_l/speed	/jointset/knee_l/knee_flexion_l/speed	/jointset/knee_l/knee_adduction_l/speed	/jointset/knee_l/knee_rotation_l/speed	/jointset/ankle_l/ankle_angle_l/speed	/jointset/subtalar_l/subtalar_angle_l/speed	/forceset/tau_hip_flexion_l	/forceset/tau_hip_adduction_l	/forceset/tau_hip_rotation_l	/forceset/tau_knee_flexion_l	/forceset/tau_ankle_angle_l	/forceset/tau_subtalar_angle_l	/forceset/tau_lumbar_extension	lambda_cid13_p0	lambda_cid13_p1	lambda_cid13_p2	lambda_cid13_p3	lambda_cid13_p4	lambda_cid13_p5	lambda_cid14_p0	/jointset/ground_pelvis/pelvis_tilt/accel	/jointset/ground_pelvis/pelvis_tx/accel	/jointset/ground_pelvis/pelvis_ty/accel	/jointset/hip_l/hip_flexion_l/accel	/jointset/hip_l/hip_adduction_l/accel	/jointset/hip_l/hip_rotation_l/accel	/jointset/back/lumbar_extension/accel	/jointset/patellofemoral_l/patellar_flexion_l/accel	/jointset/knee_l/knee_flexion_l/accel	/jointset/knee_l/knee_adduction_l/accel	/jointset/knee_l/knee_rotation_l/accel	/jointset/ankle_l/ankle_angle_l/accel	/jointset/subtalar_l/subtalar_angle_l/accel	gamma_cid13_p0	gamma_cid13_p1	gamma_cid13_p2	gamma_cid13_p3	gamma_cid13_p4	gamma_cid13_p5	gamma_cid14_p0
0	0.04784526432510137	0.1081620608890072	0.902856620028354	0.1266917050730164	-0.3701438052031867	-0.2259919840119601	-0.2144974744115991	0.2051547269256398	0.2051547269256735	-0.174532461333614	-0.1611625137713263	0.09024399430361882	0.07892682234758081	0	0	0	0	0	0	0	0	0	0	0	0	0	0.1239118987652069	-0.09598008663168481	-0.01243014517993691	-0.2676859270690343	0.2064957276236984	-0.06212843670676087	-0.05381505367199488	37.09486368411574	21.93138497336597	-5.426921582397363	-27.89252334021955	-439.3000156580065	-76.17059580846374	-26.28195770347176	-3.480884008740106	-0.8961629015512192	-0.8618083536430948	11.27679608507603	-0.2764593293793535	3.332269090518675	-3.61881181305387	10.5023067910647	10.50230679106489	2.0158319482051	-0.8191385954389561	3.655583187762161	0.7567071073837892	-9.179932259665022e-09	5.406975156053065e-07	-4.00568150776946e-08	4.653627280246635e-08	1.072818675185725e-08	1.738127322594938e-07	5.678287060532078e-08
0.01	0.04767879828034459	0.1081177370796848	0.902814824609544	0.127239526292805	-0.3701564303029622	-0.2258184140435368	-0.2146819945925757	0.2056661774197858	0.2056661774197058	-0.1744332112529193	-0.1611912690485003	0.09042241712319739	0.07896456041869203	-0.03317559008754663	-0.008844075308184037	-0.008330461721159029	0.1091088642566847	-0.002480457079319955	0.03455114048978854	-0.03659669919246825	0.1017777981028165	0.1017777981028275	0.01979894425453833	-0.005688508399980197	0.03547512471383365	0.007536192250417488	0.1202085519552552	-0.09995079000117217	-0.01149906163810187	-0.2624147485429941	0.1972208446062311	-0.05567327564317995	-0.05095122863577697	34.43795172215125	19.29916758836853	-4.671514824791845	-26.18256813475882	-440.0894732299705	-81.2093354605196	-26.28192890735595	-3.218256750119251	-0.8754175535071117	-0.8143696296623654	10.65962094522162	-0.2272307632227846	3.492131828763456	-3.633998422257622	9.938659856578298	9.938659856579759	1.954352085286732	-0.4343443914693409	3.462074918226993	0.7502819296401249	-2.419333577917775e-08	8.114217204768717e-07	-4.13704839644476e-08	8.592090616280032e-08	-1.816179747268281e-07	2.215496845034162e-07	9.227017849303003e-08
0.02	0.0471841042864494	0.1079855949756713	0.9026905836638577	0.1288647740250471	-0.3701925383467387	-0.2253042136101239	-0.2152232616554606	0.2071800346021205	0.2071800346021285	-0.1741374864455998	-0.1612750368958085	0.09094931075091701	0.07907730174146085	-0.065645589829385	-0.01756365893822068	-0.01648910537531021	0.2154853024836688	-0.004696588799231934	0.0681260930017609	-0.07134937638156422	0.2004813376731427	0.200481337673157	0.03929494535741383	-0.01100251396759846	0.06969416162898014	0.01500065033160266	0.1165052051456057	-0.1039214933705797	-0.01056797809473375	-0.2571435700170793	0.1879459615887865	-0.04921811457952031	-0.0480874035993476	31.82827300156079	16.66991262241448	-3.929413051962003	-24.53951613213625	-440.0511784754457	-86.08003289470574	-26.2815457143836	-3.339765939598839	-0.8712645659212941	-0.8274447402415559	10.73031087913571	-0.2235942574979162	3.137031494955499	-3.250007412379515	9.88745508456649	9.887455084565124	1.955243317872223	-0.7442380289665015	3.404365628025175	0.7423602735372846	-3.920673929869048e-08	1.082145925348437e-06	-4.268415285120059e-08	1.253055395231343e-07	-3.739641362055134e-07	2.692866367473385e-07	1.277574863807393e-07
0.03	0.04636815210687885	0.1077666423913151	0.9024853029655335	0.1315410850678276	-0.3702496425968547	-0.2244603530622717	-0.2161031248634338	0.2096667400702958	0.2096667400704162	-0.17364853565922	-0.1614115495379264	0.09181219370188957	0.07926422159105571	-0.09739233238567337	-0.02622814430890823	-0.02456243186318274	0.3193362907439616	-0.006700799176720413	0.1005179898569083	-0.1043896653947606	0.2963907521249917	0.2963907521249977	0.05838577214871408	-0.0162139649670685	0.1026609588195258	0.02234715575256415	0.112109960202577	-0.09908525071138233	-0.009439197077791155	-0.2511541736224216	0.1795485161782598	-0.0502453168436433	-0.04488901666150549	29.06070087623507	17.37938112935346	-3.78982601420245	-22.45901682325886	-439.9533688057593	-83.75978512295542	-26.28040696203494	-3.069247269686576	-0.8642082575088361	-0.796661809154792	10.14639749081997	-0.1854698028104713	3.271105094998786	-3.295999673380521	9.372308352951327	9.372308352951306	1.869766480636084	-0.396723750363945	3.209645074703186	0.7252059928382041	-4.769490434384985e-08	1.226712583162605e-06	-2.857812466806926e-08	1.468223026799398e-07	-5.035915914702543e-07	2.754643991759723e-07	1.469349355826302e-07
0.04	0.04523930873053751	0.1074610114062807	0.902199411961107	0.1352426869314686	-0.370326116025711	-0.2232964062829967	-0.2173063829670639	0.2130984644285911	0.2130984644285937	-0.1729719237806289	-0.1615976017128371	0.09299810628679921	0.07952348855815231	-0.1282238291836078	-0.03489933907384548	-0.03261116659575933	0.4205434666580677	-0.008570424551627329	0.1321433392802484	-0.1360283555116434	0.389485115675099	0.3894851156751063	0.07682716377509825	-0.02091042056359068	0.1343000884154084	0.02947007383202469	0.1077147152591367	-0.09424900805222837	-0.008310416061878788	-0.2451647772280232	0.1711510707675508	-0.0512725191078517	-0.04169062972380035	26.33622887611321	18.09413202977499	-3.665736801946636	-20.43454051383754	-439.0918846196619	-81.27560063066909	-26.27772993024798	-3.156716787928354	-0.8726064447707779	-0.8225263891824024	10.20154840989819	-0.1966772569817878	2.983722008594087	-2.969687633116843	9.324444904217984	9.324444904218515	1.825356284888689	-0.6412389483768557	3.138832109093024	0.6976428052370515	-5.604852838953801e-08	1.368678054439506e-06	-1.415416458658979e-08	1.679706561418272e-07	-6.319258775347078e-07	2.807852710929508e-07	1.657760990384217e-07
0.05	0.0438060529180123	0.1070688384164069	0.9018329066540721	0.139943989745615	-0.3704205144456789	-0.2218218270429008	-0.2188183037606135	0.2174479087905517	0.2174479087905742	-0.1721138724840688	-0.1618298371233449	0.09449424712699112	0.07985315799559826	-0.158286672245529	-0.04351389148892552	-0.04070142745081469	0.5192602392025069	-0.01027311921280934	0.1626098534272827	-0.166107918725976	0.4799326838920584	0.4799326838920761	0.09468149388673378	-0.02546098528919413	0.1647319577627445	0.03645132633053571	0.103449199781147	-0.09191151340091441	-0.007173055297647501	-0.2403903495280572	0.1637813694210498	-0.05011406716076527	-0.03857035931602723	24.06410231319153	17.81105753018362	-3.417525259969078	-18.92823530434784	-438.4578370785716	-80.93453402492516	-26.27264087521034	-2.909959996044554	-0.8526407617793241	-0.8041332519017752	9.638210769736585	-0.1518459228643855	3.053763535808127	-2.989907995220081	8.834218548934066	8.834218548935709	1.750464127809739	-0.3506476464831733	2.965983957290133	0.6962799962391487	-5.688376947644278e-08	1.384153220983374e-06	-4.074645296910043e-08	1.758580568522937e-07	-6.985310977668728e-07	3.036728908816302e-07	1.739293055974248e-07
0.06	0.04207639028872634	0.1065911676780036	0.9013851272748373	0.1456187541038155	-0.3705308958826833	-0.2200474531777131	-0.2206235836522344	0.2226876899883722	0.222687689988375	-0.1710802793356561	-0.1621053146634938	0.09628883058260697	0.08025222266284512	-0.1875051925362466	-0.0519988887797513	-0.0488659810357618	0.615235775467786	-0.01176702796109998	0.1921022642963294	-0.1947001751255063	0.5675524828489676	0.5675524828490006	0.1119355341387107	-0.02955884648802013	0.1939886114995169	0.04334911979227826	0.09918368430306167	-0.08957401874962856	-0.006035694533319366	-0.2356159218282656	0.1564116680744606	-0.04895561521373371	-0.03545008890824385	21.83100712037795	17.53173845424839	-3.182009872212838	-17.46884916661943	-437.1346987795404	-80.44446632346121	-26.26397284757723	-2.987852233687958	-0.8466954199194709	-0.8373849351607837	9.653301154065998	-0.1549200744036827	2.788901352996638	-2.672226270156483	8.758891052207805	8.758891052209298	1.705298312956659	-0.5506982430212912	2.903788986980759	0.680950997883324	-5.740244707034614e-08	1.394302479959536e-06	-6.906574128693697e-08	1.831871016574373e-07	-7.625371994376783e-07	3.273001632122761e-07	1.816324929186685e-07
0.07000000000000001	0.04005814766677646	0.1060292725557511	0.9008551011080168	0.1522407501758342	-0.3706551918933437	-0.2179845758416271	-0.2227068894974907	0.2287905717477833	0.2287905717477925	-0.1698770187234205	-0.1624212539659354	0.09837036285725291	0.08071994331042966	-0.2160042198770735	-0.06035808195575552	-0.05716465035923606	0.7087081629649743	-0.01305973472288753	0.2203198189337748	-0.2217283286752626	0.6525509851574729	0.6525509851574557	0.1285928509447793	-0.03353582333929942	0.2221176315579515	0.05017894908900658	0.09472967157875702	-0.08653895072113556	-0.00482615032771126	-0.2311568495034697	0.1493855195186853	-0.0481812923480173	-0.03224007165839841	19.67302205674091	17.42762529597228	-2.999018046122604	-16.05470470034538	-436.0377715946947	-79.5556663554092	-26.25053651079704	-2.760047584503348	-0.8271864816713185	-0.8300709189200211	9.125916480383474	-0.1117709917259169	2.815230528583519	-2.683210110308507	8.299360819368923	8.299360819360633	1.627617028406886	-0.3072610793198814	2.737465300871941	0.6813801402697959	-5.349113805414727e-08	1.294581166467334e-06	-1.036516259426462e-07	1.773294947571327e-07	-7.78200895710387e-07	3.328749591004809e-07	1.770517401834938e-07
